<svg width="145" height="30" viewBox="0 0 145 30" fill="none" xmlns="http://www.w3.org/2000/svg">
<path d="M22.5 10H23.75C25.0761 10 26.3479 10.5268 27.2855 11.4645C28.2232 12.4021 28.75 13.6739 28.75 15C28.75 16.3261 28.2232 17.5979 27.2855 18.5355C26.3479 19.4732 25.0761 20 23.75 20H22.5" stroke="#69472E" stroke-width="2" stroke-linecap="round" stroke-linejoin="round"/>
<path d="M2.5 10H22.5V21.25C22.5 22.5761 21.9732 23.8479 21.0355 24.7855C20.0979 25.7232 18.8261 26.25 17.5 26.25H7.5C6.17392 26.25 4.90215 25.7232 3.96447 24.7855C3.02678 23.8479 2.5 22.5761 2.5 21.25V10Z" stroke="#69472E" stroke-width="2" stroke-linecap="round" stroke-linejoin="round"/>
<path d="M7.5 1.25V5" stroke="#69472E" stroke-width="2" stroke-linecap="round" stroke-linejoin="round"/>
<path d="M12.5 1.25V5" stroke="#69472E" stroke-width="2" stroke-linecap="round" stroke-linejoin="round"/>
<path d="M17.5 1.25V5" stroke="#69472E" stroke-width="2" stroke-linecap="round" stroke-linejoin="round"/>
<path d="M48.352 23.24C46.864 23.24 45.6 22.984 44.56 22.472C43.536 21.944 42.752 21.2 42.208 20.24C41.664 19.264 41.36 18.096 41.296 16.736C41.28 16.08 41.272 15.376 41.272 14.624C41.272 13.872 41.28 13.152 41.296 12.464C41.36 11.12 41.664 9.96 42.208 8.984C42.768 8.008 43.56 7.264 44.584 6.752C45.624 6.224 46.88 5.96 48.352 5.96C49.44 5.96 50.416 6.104 51.28 6.392C52.144 6.68 52.88 7.08 53.488 7.592C54.096 8.088 54.568 8.672 54.904 9.344C55.24 10.016 55.416 10.744 55.432 11.528C55.448 11.672 55.4 11.792 55.288 11.888C55.192 11.984 55.072 12.032 54.928 12.032H52.648C52.472 12.032 52.328 11.992 52.216 11.912C52.104 11.816 52.024 11.664 51.976 11.456C51.72 10.4 51.28 9.68 50.656 9.296C50.032 8.912 49.256 8.72 48.328 8.72C47.256 8.72 46.4 9.024 45.76 9.632C45.12 10.224 44.776 11.208 44.728 12.584C44.68 13.896 44.68 15.24 44.728 16.616C44.776 17.992 45.12 18.984 45.76 19.592C46.4 20.184 47.256 20.48 48.328 20.48C49.256 20.48 50.032 20.288 50.656 19.904C51.28 19.504 51.72 18.784 51.976 17.744C52.024 17.52 52.104 17.368 52.216 17.288C52.328 17.208 52.472 17.168 52.648 17.168H54.928C55.072 17.168 55.192 17.216 55.288 17.312C55.4 17.408 55.448 17.528 55.432 17.672C55.416 18.456 55.24 19.184 54.904 19.856C54.568 20.528 54.096 21.12 53.488 21.632C52.88 22.128 52.144 22.52 51.28 22.808C50.416 23.096 49.44 23.24 48.352 23.24ZM64.7103 23.24C63.4303 23.24 62.3503 23.016 61.4703 22.568C60.6063 22.12 59.9423 21.488 59.4783 20.672C59.0303 19.856 58.7743 18.904 58.7103 17.816C58.6943 17.528 58.6863 17.176 58.6863 16.76C58.6863 16.344 58.6943 15.992 58.7103 15.704C58.7743 14.6 59.0383 13.648 59.5023 12.848C59.9823 12.032 60.6543 11.4 61.5183 10.952C62.3983 10.504 63.4623 10.28 64.7103 10.28C65.9583 10.28 67.0143 10.504 67.8783 10.952C68.7583 11.4 69.4303 12.032 69.8943 12.848C70.3743 13.648 70.6463 14.6 70.7103 15.704C70.7263 15.992 70.7343 16.344 70.7343 16.76C70.7343 17.176 70.7263 17.528 70.7103 17.816C70.6463 18.904 70.3823 19.856 69.9183 20.672C69.4703 21.488 68.8063 22.12 67.9263 22.568C67.0623 23.016 65.9903 23.24 64.7103 23.24ZM64.7103 20.864C65.5583 20.864 66.2143 20.6 66.6783 20.072C67.1423 19.528 67.3983 18.736 67.4463 17.696C67.4623 17.456 67.4703 17.144 67.4703 16.76C67.4703 16.376 67.4623 16.064 67.4463 15.824C67.3983 14.8 67.1423 14.016 66.6783 13.472C66.2143 12.928 65.5583 12.656 64.7103 12.656C63.8623 12.656 63.2063 12.928 62.7423 13.472C62.2783 14.016 62.0223 14.8 61.9743 15.824C61.9583 16.064 61.9503 16.376 61.9503 16.76C61.9503 17.144 61.9583 17.456 61.9743 17.696C62.0223 18.736 62.2783 19.528 62.7423 20.072C63.2063 20.6 63.8623 20.864 64.7103 20.864ZM76.3728 23C76.2128 23 76.0768 22.944 75.9648 22.832C75.8528 22.72 75.7968 22.584 75.7968 22.424V13.064H73.8528C73.6928 13.064 73.5568 13.008 73.4448 12.896C73.3328 12.784 73.2768 12.648 73.2768 12.488V11.096C73.2768 10.936 73.3328 10.8 73.4448 10.688C73.5568 10.576 73.6928 10.52 73.8528 10.52H75.7968V9.536C75.7968 8.576 75.9728 7.784 76.3248 7.16C76.6768 6.52 77.1968 6.04 77.8848 5.72C78.5728 5.4 79.4448 5.24 80.5008 5.24H82.1328C82.3088 5.24 82.4448 5.296 82.5408 5.408C82.6528 5.52 82.7088 5.656 82.7088 5.816V7.208C82.7088 7.368 82.6528 7.504 82.5408 7.616C82.4448 7.728 82.3088 7.784 82.1328 7.784H80.5968C79.9568 7.784 79.5168 7.944 79.2768 8.264C79.0368 8.584 78.9168 9.048 78.9168 9.656V10.52H81.8928C82.0688 10.52 82.2048 10.576 82.3008 10.688C82.4128 10.8 82.4688 10.936 82.4688 11.096V12.488C82.4688 12.648 82.4128 12.784 82.3008 12.896C82.2048 13.008 82.0688 13.064 81.8928 13.064H78.9168V22.424C78.9168 22.584 78.8608 22.72 78.7488 22.832C78.6368 22.944 78.5008 23 78.3408 23H76.3728ZM91.2302 23C90.2702 23 89.4622 22.832 88.8062 22.496C88.1502 22.16 87.6622 21.664 87.3422 21.008C87.0222 20.336 86.8622 19.504 86.8622 18.512V13.064H84.9662C84.8062 13.064 84.6702 13.008 84.5582 12.896C84.4462 12.784 84.3902 12.648 84.3902 12.488V11.096C84.3902 10.936 84.4462 10.8 84.5582 10.688C84.6702 10.576 84.8062 10.52 84.9662 10.52H86.8622V6.536C86.8622 6.376 86.9102 6.24 87.0062 6.128C87.1182 6.016 87.2622 5.96 87.4382 5.96H89.3822C89.5422 5.96 89.6782 6.016 89.7902 6.128C89.9022 6.24 89.9582 6.376 89.9582 6.536V10.52H92.9582C93.1182 10.52 93.2542 10.576 93.3662 10.688C93.4782 10.8 93.5342 10.936 93.5342 11.096V12.488C93.5342 12.648 93.4782 12.784 93.3662 12.896C93.2542 13.008 93.1182 13.064 92.9582 13.064H89.9582V18.272C89.9582 18.928 90.0702 19.44 90.2942 19.808C90.5342 20.176 90.9422 20.36 91.5182 20.36H93.1742C93.3342 20.36 93.4702 20.416 93.5822 20.528C93.6942 20.64 93.7502 20.776 93.7502 20.936V22.424C93.7502 22.584 93.6942 22.72 93.5822 22.832C93.4702 22.944 93.3342 23 93.1742 23H91.2302ZM102.599 23.24C101.319 23.24 100.239 23.016 99.3593 22.568C98.4953 22.12 97.8313 21.488 97.3673 20.672C96.9193 19.856 96.6633 18.904 96.5993 17.816C96.5833 17.528 96.5753 17.176 96.5753 16.76C96.5753 16.344 96.5833 15.992 96.5993 15.704C96.6633 14.6 96.9273 13.648 97.3913 12.848C97.8713 12.032 98.5433 11.4 99.4073 10.952C100.287 10.504 101.351 10.28 102.599 10.28C103.847 10.28 104.903 10.504 105.767 10.952C106.647 11.4 107.319 12.032 107.783 12.848C108.263 13.648 108.535 14.6 108.599 15.704C108.615 15.992 108.623 16.344 108.623 16.76C108.623 17.176 108.615 17.528 108.599 17.816C108.535 18.904 108.271 19.856 107.807 20.672C107.359 21.488 106.695 22.12 105.815 22.568C104.951 23.016 103.879 23.24 102.599 23.24ZM102.599 20.864C103.447 20.864 104.103 20.6 104.567 20.072C105.031 19.528 105.287 18.736 105.335 17.696C105.351 17.456 105.359 17.144 105.359 16.76C105.359 16.376 105.351 16.064 105.335 15.824C105.287 14.8 105.031 14.016 104.567 13.472C104.103 12.928 103.447 12.656 102.599 12.656C101.751 12.656 101.095 12.928 100.631 13.472C100.167 14.016 99.9113 14.8 99.8633 15.824C99.8473 16.064 99.8393 16.376 99.8393 16.76C99.8393 17.144 99.8473 17.456 99.8633 17.696C99.9113 18.736 100.167 19.528 100.631 20.072C101.095 20.6 101.751 20.864 102.599 20.864ZM115.038 23C114.798 23 114.606 22.936 114.462 22.808C114.334 22.664 114.246 22.488 114.198 22.28L111.342 6.896C111.342 6.848 111.334 6.808 111.318 6.776C111.318 6.744 111.318 6.72 111.318 6.704C111.318 6.56 111.366 6.44 111.462 6.344C111.574 6.248 111.694 6.2 111.822 6.2H113.934C114.334 6.2 114.558 6.36 114.606 6.68L116.598 17.552L118.758 10.52C118.806 10.392 118.886 10.264 118.998 10.136C119.126 9.992 119.31 9.92 119.55 9.92H120.846C121.102 9.92 121.286 9.992 121.398 10.136C121.51 10.264 121.582 10.392 121.614 10.52L123.798 17.528L125.79 6.68C125.838 6.36 126.062 6.2 126.462 6.2H128.574C128.702 6.2 128.814 6.248 128.91 6.344C129.006 6.44 129.054 6.56 129.054 6.704C129.054 6.72 129.054 6.744 129.054 6.776C129.054 6.808 129.046 6.848 129.03 6.896L126.174 22.28C126.142 22.488 126.054 22.664 125.91 22.808C125.766 22.936 125.574 23 125.334 23H123.726C123.486 23 123.294 22.936 123.15 22.808C123.022 22.68 122.934 22.544 122.886 22.4L120.198 14.384L117.51 22.4C117.446 22.544 117.35 22.68 117.222 22.808C117.094 22.936 116.902 23 116.646 23H115.038ZM137.668 23.24C135.892 23.24 134.484 22.728 133.444 21.704C132.404 20.68 131.844 19.224 131.764 17.336C131.748 17.176 131.74 16.976 131.74 16.736C131.74 16.48 131.748 16.28 131.764 16.136C131.828 14.936 132.1 13.896 132.58 13.016C133.076 12.136 133.756 11.464 134.62 11C135.484 10.52 136.5 10.28 137.668 10.28C138.964 10.28 140.052 10.552 140.932 11.096C141.812 11.624 142.476 12.368 142.924 13.328C143.372 14.272 143.596 15.368 143.596 16.616V17.12C143.596 17.28 143.54 17.416 143.428 17.528C143.316 17.64 143.172 17.696 142.996 17.696H135.028C135.028 17.696 135.028 17.72 135.028 17.768C135.028 17.816 135.028 17.856 135.028 17.888C135.044 18.448 135.148 18.968 135.34 19.448C135.548 19.912 135.844 20.288 136.228 20.576C136.628 20.864 137.1 21.008 137.644 21.008C138.092 21.008 138.468 20.944 138.772 20.816C139.076 20.672 139.324 20.512 139.516 20.336C139.708 20.16 139.844 20.016 139.924 19.904C140.068 19.712 140.18 19.6 140.26 19.568C140.356 19.52 140.492 19.496 140.668 19.496H142.732C142.892 19.496 143.02 19.544 143.116 19.64C143.228 19.736 143.276 19.856 143.26 20C143.244 20.256 143.108 20.568 142.852 20.936C142.612 21.304 142.26 21.664 141.796 22.016C141.332 22.368 140.748 22.664 140.044 22.904C139.356 23.128 138.564 23.24 137.668 23.24ZM135.028 15.68H140.332V15.608C140.332 14.984 140.228 14.44 140.02 13.976C139.812 13.512 139.508 13.144 139.108 12.872C138.708 12.6 138.228 12.464 137.668 12.464C137.108 12.464 136.628 12.6 136.228 12.872C135.828 13.144 135.524 13.512 135.316 13.976C135.124 14.44 135.028 14.984 135.028 15.608V15.68Z" fill="#69472E"/>
</svg>
