<svg width="147" height="30" viewBox="0 0 147 30" fill="none" xmlns="http://www.w3.org/2000/svg">
<path d="M22.5 10H23.75C25.0761 10 26.3479 10.5268 27.2855 11.4645C28.2232 12.4021 28.75 13.6739 28.75 15C28.75 16.3261 28.2232 17.5979 27.2855 18.5355C26.3479 19.4732 25.0761 20 23.75 20H22.5" stroke="white" stroke-width="2" stroke-linecap="round" stroke-linejoin="round"/>
<path d="M2.5 10H22.5V21.25C22.5 22.5761 21.9732 23.8479 21.0355 24.7855C20.0979 25.7232 18.8261 26.25 17.5 26.25H7.5C6.17392 26.25 4.90215 25.7232 3.96447 24.7855C3.02678 23.8479 2.5 22.5761 2.5 21.25V10Z" stroke="white" stroke-width="2" stroke-linecap="round" stroke-linejoin="round"/>
<path d="M7.5 1.25V5" stroke="white" stroke-width="2" stroke-linecap="round" stroke-linejoin="round"/>
<path d="M12.5 1.25V5" stroke="white" stroke-width="2" stroke-linecap="round" stroke-linejoin="round"/>
<path d="M17.5 1.25V5" stroke="white" stroke-width="2" stroke-linecap="round" stroke-linejoin="round"/>
<path d="M48.448 23.24C46.944 23.24 45.664 22.992 44.608 22.496C43.568 21.984 42.76 21.248 42.184 20.288C41.608 19.312 41.288 18.128 41.224 16.736C41.208 16.08 41.2 15.376 41.2 14.624C41.2 13.872 41.208 13.152 41.224 12.464C41.288 11.088 41.608 9.92 42.184 8.96C42.776 7.984 43.6 7.24 44.656 6.728C45.712 6.216 46.976 5.96 48.448 5.96C49.52 5.96 50.496 6.096 51.376 6.368C52.256 6.64 53.016 7.032 53.656 7.544C54.296 8.056 54.792 8.656 55.144 9.344C55.496 10.032 55.688 10.8 55.72 11.648C55.72 11.792 55.664 11.912 55.552 12.008C55.456 12.104 55.336 12.152 55.192 12.152H52.456C52.264 12.152 52.112 12.104 52 12.008C51.888 11.912 51.8 11.752 51.736 11.528C51.496 10.584 51.096 9.936 50.536 9.584C49.976 9.232 49.28 9.056 48.448 9.056C47.456 9.056 46.672 9.328 46.096 9.872C45.52 10.416 45.208 11.32 45.16 12.584C45.112 13.896 45.112 15.24 45.16 16.616C45.208 17.88 45.52 18.784 46.096 19.328C46.672 19.872 47.456 20.144 48.448 20.144C49.28 20.144 49.976 19.968 50.536 19.616C51.112 19.248 51.512 18.6 51.736 17.672C51.8 17.432 51.888 17.272 52 17.192C52.112 17.096 52.264 17.048 52.456 17.048H55.192C55.336 17.048 55.456 17.096 55.552 17.192C55.664 17.288 55.72 17.408 55.72 17.552C55.688 18.4 55.496 19.168 55.144 19.856C54.792 20.544 54.296 21.144 53.656 21.656C53.016 22.168 52.256 22.56 51.376 22.832C50.496 23.104 49.52 23.24 48.448 23.24ZM65.0646 23.24C63.7366 23.24 62.6246 23.024 61.7286 22.592C60.8326 22.144 60.1446 21.512 59.6646 20.696C59.2006 19.88 58.9446 18.928 58.8966 17.84C58.8806 17.52 58.8726 17.16 58.8726 16.76C58.8726 16.344 58.8806 15.984 58.8966 15.68C58.9446 14.576 59.2166 13.624 59.7126 12.824C60.2086 12.008 60.9046 11.384 61.8006 10.952C62.6966 10.504 63.7846 10.28 65.0646 10.28C66.3286 10.28 67.4086 10.504 68.3046 10.952C69.2006 11.384 69.8966 12.008 70.3926 12.824C70.8886 13.624 71.1606 14.576 71.2086 15.68C71.2406 15.984 71.2566 16.344 71.2566 16.76C71.2566 17.16 71.2406 17.52 71.2086 17.84C71.1606 18.928 70.8966 19.88 70.4166 20.696C69.9526 21.512 69.2726 22.144 68.3766 22.592C67.4806 23.024 66.3766 23.24 65.0646 23.24ZM65.0646 20.6C65.8486 20.6 66.4406 20.36 66.8406 19.88C67.2406 19.384 67.4566 18.664 67.4886 17.72C67.5046 17.48 67.5126 17.16 67.5126 16.76C67.5126 16.36 67.5046 16.04 67.4886 15.8C67.4566 14.872 67.2406 14.16 66.8406 13.664C66.4406 13.168 65.8486 12.92 65.0646 12.92C64.2806 12.92 63.6806 13.168 63.2646 13.664C62.8646 14.16 62.6486 14.872 62.6166 15.8C62.6006 16.04 62.5926 16.36 62.5926 16.76C62.5926 17.16 62.6006 17.48 62.6166 17.72C62.6486 18.664 62.8646 19.384 63.2646 19.88C63.6806 20.36 64.2806 20.6 65.0646 20.6ZM76.8175 23C76.6415 23 76.4975 22.944 76.3855 22.832C76.2735 22.72 76.2175 22.576 76.2175 22.4V13.352H74.3455C74.1695 13.352 74.0255 13.296 73.9135 13.184C73.8015 13.072 73.7455 12.928 73.7455 12.752V11.12C73.7455 10.944 73.8015 10.8 73.9135 10.688C74.0255 10.576 74.1695 10.52 74.3455 10.52H76.2175V9.656C76.2175 8.632 76.4095 7.792 76.7935 7.136C77.1775 6.48 77.7375 6 78.4735 5.696C79.2095 5.392 80.1135 5.24 81.1855 5.24H82.9375C83.1135 5.24 83.2575 5.296 83.3695 5.408C83.4815 5.52 83.5375 5.664 83.5375 5.84V7.472C83.5375 7.648 83.4815 7.792 83.3695 7.904C83.2575 8.016 83.1135 8.072 82.9375 8.072H81.3295C80.7375 8.072 80.3215 8.216 80.0815 8.504C79.8575 8.792 79.7455 9.216 79.7455 9.776V10.52H82.6975C82.8735 10.52 83.0175 10.576 83.1295 10.688C83.2415 10.8 83.2975 10.944 83.2975 11.12V12.752C83.2975 12.928 83.2415 13.072 83.1295 13.184C83.0175 13.296 82.8735 13.352 82.6975 13.352H79.7455V22.4C79.7455 22.576 79.6895 22.72 79.5775 22.832C79.4655 22.944 79.3295 23 79.1695 23H76.8175ZM92.3151 23C91.3231 23 90.4751 22.84 89.7711 22.52C89.0671 22.184 88.5311 21.672 88.1631 20.984C87.8111 20.296 87.6351 19.432 87.6351 18.392V13.352H85.7631C85.5871 13.352 85.4431 13.296 85.3311 13.184C85.2191 13.072 85.1631 12.928 85.1631 12.752V11.12C85.1631 10.944 85.2191 10.8 85.3311 10.688C85.4431 10.576 85.5871 10.52 85.7631 10.52H87.6351V6.56C87.6351 6.384 87.6911 6.24 87.8031 6.128C87.9311 6.016 88.0751 5.96 88.2351 5.96H90.5871C90.7631 5.96 90.9071 6.016 91.0191 6.128C91.1311 6.24 91.1871 6.384 91.1871 6.56V10.52H94.1871C94.3471 10.52 94.4831 10.576 94.5951 10.688C94.7071 10.8 94.7631 10.944 94.7631 11.12V12.752C94.7631 12.928 94.7071 13.072 94.5951 13.184C94.4831 13.296 94.3471 13.352 94.1871 13.352H91.1871V18.104C91.1871 18.712 91.2911 19.192 91.4991 19.544C91.7231 19.88 92.1071 20.048 92.6511 20.048H94.4031C94.5631 20.048 94.6991 20.104 94.8111 20.216C94.9231 20.328 94.9791 20.464 94.9791 20.624V22.4C94.9791 22.576 94.9231 22.72 94.8111 22.832C94.6991 22.944 94.5631 23 94.4031 23H92.3151ZM103.985 23.24C102.657 23.24 101.545 23.024 100.649 22.592C99.7529 22.144 99.0649 21.512 98.5849 20.696C98.1209 19.88 97.8649 18.928 97.8169 17.84C97.8009 17.52 97.7929 17.16 97.7929 16.76C97.7929 16.344 97.8009 15.984 97.8169 15.68C97.8649 14.576 98.1369 13.624 98.6329 12.824C99.1289 12.008 99.8249 11.384 100.721 10.952C101.617 10.504 102.705 10.28 103.985 10.28C105.249 10.28 106.329 10.504 107.225 10.952C108.121 11.384 108.817 12.008 109.313 12.824C109.809 13.624 110.081 14.576 110.129 15.68C110.161 15.984 110.177 16.344 110.177 16.76C110.177 17.16 110.161 17.52 110.129 17.84C110.081 18.928 109.817 19.88 109.337 20.696C108.873 21.512 108.193 22.144 107.297 22.592C106.401 23.024 105.297 23.24 103.985 23.24ZM103.985 20.6C104.769 20.6 105.361 20.36 105.761 19.88C106.161 19.384 106.377 18.664 106.409 17.72C106.425 17.48 106.433 17.16 106.433 16.76C106.433 16.36 106.425 16.04 106.409 15.8C106.377 14.872 106.161 14.16 105.761 13.664C105.361 13.168 104.769 12.92 103.985 12.92C103.201 12.92 102.601 13.168 102.185 13.664C101.785 14.16 101.569 14.872 101.537 15.8C101.521 16.04 101.513 16.36 101.513 16.76C101.513 17.16 101.521 17.48 101.537 17.72C101.569 18.664 101.785 19.384 102.185 19.88C102.601 20.36 103.201 20.6 103.985 20.6ZM116.418 23C116.162 23 115.954 22.928 115.794 22.784C115.65 22.64 115.562 22.464 115.53 22.256L112.794 6.872C112.778 6.84 112.77 6.808 112.77 6.776C112.77 6.744 112.77 6.72 112.77 6.704C112.77 6.576 112.818 6.464 112.914 6.368C113.01 6.256 113.13 6.2 113.274 6.2H115.794C116.21 6.2 116.442 6.368 116.49 6.704L118.29 16.856L120.234 10.544C120.282 10.416 120.362 10.28 120.474 10.136C120.586 9.992 120.77 9.92 121.026 9.92H122.538C122.794 9.92 122.978 9.992 123.09 10.136C123.202 10.28 123.274 10.416 123.306 10.544L125.274 16.832L127.05 6.704C127.098 6.368 127.338 6.2 127.77 6.2H130.29C130.434 6.2 130.554 6.256 130.65 6.368C130.746 6.464 130.794 6.576 130.794 6.704C130.794 6.72 130.794 6.744 130.794 6.776C130.794 6.808 130.786 6.84 130.77 6.872L128.034 22.256C128.002 22.464 127.906 22.64 127.746 22.784C127.602 22.928 127.402 23 127.146 23H125.202C124.946 23 124.746 22.936 124.602 22.808C124.474 22.664 124.386 22.52 124.338 22.376L121.77 14.936L119.226 22.376C119.178 22.52 119.082 22.664 118.938 22.808C118.81 22.936 118.61 23 118.338 23H116.418ZM139.475 23.24C137.635 23.24 136.171 22.728 135.083 21.704C134.011 20.68 133.443 19.192 133.379 17.24C133.379 17.112 133.379 16.944 133.379 16.736C133.379 16.512 133.379 16.336 133.379 16.208C133.443 14.976 133.723 13.92 134.219 13.04C134.715 12.144 135.411 11.464 136.307 11C137.203 10.52 138.251 10.28 139.451 10.28C140.795 10.28 141.915 10.56 142.811 11.12C143.723 11.664 144.403 12.416 144.851 13.376C145.315 14.32 145.547 15.408 145.547 16.64V17.192C145.547 17.352 145.483 17.488 145.355 17.6C145.243 17.712 145.107 17.768 144.947 17.768H137.099C137.099 17.784 137.099 17.816 137.099 17.864C137.099 17.896 137.099 17.928 137.099 17.96C137.115 18.472 137.211 18.944 137.387 19.376C137.579 19.792 137.843 20.128 138.179 20.384C138.531 20.64 138.947 20.768 139.427 20.768C139.827 20.768 140.155 20.712 140.411 20.6C140.667 20.488 140.875 20.352 141.035 20.192C141.211 20.032 141.339 19.896 141.419 19.784C141.563 19.624 141.675 19.528 141.755 19.496C141.851 19.448 141.995 19.424 142.187 19.424H144.683C144.843 19.424 144.971 19.472 145.067 19.568C145.179 19.648 145.227 19.768 145.211 19.928C145.195 20.184 145.059 20.504 144.803 20.888C144.563 21.256 144.203 21.624 143.723 21.992C143.243 22.344 142.643 22.64 141.923 22.88C141.219 23.12 140.403 23.24 139.475 23.24ZM137.099 15.584H141.803V15.536C141.803 14.96 141.707 14.464 141.515 14.048C141.339 13.616 141.075 13.28 140.723 13.04C140.371 12.8 139.947 12.68 139.451 12.68C138.955 12.68 138.531 12.8 138.179 13.04C137.827 13.28 137.555 13.616 137.363 14.048C137.187 14.464 137.099 14.96 137.099 15.536V15.584Z" fill="white"/>
</svg>
